/* XPM */
static char *db90ff1469cf40e6c274f64a50b2cc7e3zKgoamt6jHHC4Jz[] = {
/* columns rows colors chars-per-pixel */
"50 50 256 2 ",
"   c #6C3B01",
".  c #693505",
"X  c #7B3C02",
"o  c #763A05",
"O  c #682E16",
"+  c #793D11",
"@  c #6B3309",
"#  c #6C4201",
"$  c #764502",
"%  c #7B4B01",
"&  c #7B440B",
"*  c #794706",
"=  c #7A4816",
"-  c #704E10",
";  c #754B24",
":  c #635123",
">  c #5A5104",
",  c #833D01",
"<  c #883708",
"1  c #8C3A0C",
"2  c #A13900",
"3  c #844402",
"4  c #844B03",
"5  c #8C4A03",
"6  c #85450B",
"7  c #834B0B",
"8  c #8C4C0B",
"9  c #8A4406",
"0  c #934C01",
"q  c #954708",
"w  c #8C5402",
"e  c #865408",
"r  c #945303",
"t  c #9B5504",
"y  c #935A03",
"u  c #9C5905",
"i  c #93530B",
"p  c #9A560B",
"a  c #9D5A0A",
"s  c #945A0D",
"d  c #874916",
"f  c #984817",
"g  c #8C5313",
"h  c #8A5718",
"j  c #9B5B12",
"k  c #955716",
"l  c #A64B05",
"z  c #A25B04",
"x  c #A25C0C",
"c  c #A65705",
"v  c #A65A14",
"b  c #B75C0E",
"n  c #996415",
"m  c #92690A",
"M  c #AC6402",
"N  c #A5610C",
"B  c #A8630D",
"V  c #A86702",
"C  c #B36805",
"Z  c #B57604",
"A  c #A46113",
"S  c #AC6414",
"D  c #A9671A",
"F  c #B16515",
"G  c #B26916",
"H  c #B4691B",
"J  c #B6681A",
"K  c #B87618",
"L  c #AA750D",
"P  c #874A28",
"I  c #975725",
"U  c #8A562F",
"Y  c #A85829",
"T  c #996831",
"R  c #946F2F",
"E  c #AA6A25",
"W  c #B76924",
"Q  c #BA7529",
"!  c #AA762E",
"~  c #C17900",
"^  c #C1722B",
"/  c #C46E2C",
"(  c #9A7A57",
")  c #A87C47",
"_  c #86484D",
"`  c #D57A5B",
"'  c #BE8504",
"]  c #A98017",
"[  c #AB8831",
"{  c #C68A09",
"}  c #D28E05",
"|  c #D99B04",
" . c #D39A16",
".. c #C78E14",
"X. c #DBA507",
"o. c #D8B405",
"O. c #D7A517",
"+. c #E6AA00",
"@. c #EAAC01",
"#. c #E6A708",
"$. c #E9B503",
"%. c #F7B906",
"&. c #E5A714",
"*. c #EEB919",
"=. c #F4B414",
"-. c #CF8F2C",
";. c #D8A729",
":. c #D5AC2E",
">. c #EAB227",
",. c #EDC803",
"<. c #EED408",
"1. c #FCD401",
"2. c #F6DB02",
"3. c #FCDB01",
"4. c #F7D808",
"5. c #FECB13",
"6. c #FFC612",
"7. c #FCD717",
"8. c #ECCB13",
"9. c #FEE302",
"0. c #FDE30A",
"q. c #FCE314",
"w. c #EFF100",
"e. c #FECC26",
"r. c #F8D928",
"t. c #FFDB3C",
"y. c #F1C935",
"u. c #FDE53A",
"i. c #FAE92D",
"p. c #B58B52",
"a. c #AB8E71",
"s. c #B6B76C",
"d. c #C38C4B",
"f. c #D2B152",
"g. c #CFAB6E",
"h. c #E9B871",
"j. c #E1AC55",
"k. c #B6C678",
"l. c #8DC177",
"z. c #D3C758",
"x. c #FEDF49",
"c. c #FBDB56",
"v. c #ECCC4A",
"b. c #FDE44B",
"n. c #FBE946",
"m. c #FBF348",
"M. c #FFEB5D",
"N. c #FBE857",
"B. c #F8F354",
"V. c #EEED4E",
"C. c #D6C77F",
"Z. c #DDD67A",
"A. c #D1C968",
"S. c #E3C76B",
"D. c #F6CA69",
"F. c #E8D769",
"G. c #F8D969",
"H. c #E8CB79",
"J. c #E9D778",
"K. c #F7DA78",
"L. c #FBC777",
"P. c #DCE776",
"I. c #FFE36B",
"U. c #FAE965",
"Y. c #FBF668",
"T. c #E9E578",
"R. c #FCE878",
"E. c #FEF37C",
"W. c #F6F577",
"Q. c #ECF47D",
"!. c #32A8AF",
"~. c #5BAE9C",
"^. c #6AAB8D",
"/. c #69AA98",
"(. c #6EB390",
"). c #4EADAF",
"_. c #6DAFB1",
"`. c #3AC1A7",
"'. c #7AC695",
"]. c #5EC7B4",
"[. c #75C9B1",
"{. c #50C79D",
"}. c #37BACC",
"|. c #32B7E8",
" X c #49B8C7",
".X c #51AECA",
"XX c #7BBBC4",
"oX c #53CBCF",
"OX c #72C9C9",
"+X c #8FBC98",
"@X c #ADB28F",
"#X c #8DB4AB",
"$X c #A2BBA4",
"%X c #CBB18D",
"&X c #CEB6AC",
"*X c #91CF9A",
"=X c #B0CE93",
"-X c #BCE69A",
";X c #85C8A2",
":X c #95C9A4",
">X c #91C8B5",
",X c #A3CAA6",
"<X c #AED0AB",
"1X c #BFE0A7",
"2X c #CBD695",
"3X c #D4D18E",
"4X c #FAD888",
"5X c #F5D896",
"6X c #EBD187",
"7X c #D0E996",
"8X c #E8E689",
"9X c #FFE484",
"0X c #FDEB85",
"qX c #FEE58A",
"wX c #F8E88B",
"eX c #EEF489",
"rX c #FBF788",
"tX c #FBE695",
"yX c #FEF494",
"uX c #FDF49C",
"iX c #FBFA97",
"pX c #E7ED99",
"aX c #D1CDA9",
"sX c #FDDAAA",
"dX c #FADCB7",
"fX c #EDD1AC",
"gX c #D3F2AC",
"hX c #FAE9A7",
"jX c #FDFCAD",
"kX c #FCF7A7",
"lX c #F7ECB4",
"zX c #FEFBB2",
"xX c #FDFBBB",
"cX c #FAF6B5",
"vX c #E3E9A7",
"bX c #80BCD6",
"nX c #90D1CD",
"mX c #E6DBCD",
"MX c #FDFACA",
"NX c #FDE9D6",
"BX c #FDFBD3",
"VX c #FEF6DC",
"CX c #FBF5D8",
"ZX c #FBEAC7",
"AX c #FEEDE9",
"SX c #FDFDEC",
"DX c #FBF9E8",
"FX c #EDFAFC",
"GX c #F5FBF4",
"HX c #FEFDF4",
"JX c #FDF5FE",
"KX c #F4FDFE",
"LX c #FEFEFE",
"PX c #F7F5F7",
"IX c #EDF3F0",
"UX c gray83",
/* pixels */
"LXLXLXLXLXLXLXLXKXLXLXHXHXHXHXAXFXFXGXLXPXAXhX6Xy.y.e.=.=.@.=.#.=.*.j.L.sXNXSXLXJXLXGXIXLXLXJXPXLXLX",
"LXLXLXLXLXLXLXLXLXJXHXLXLXKXLXLXLXSXMX5Xh.:.8.1.e.=.=.#.#.| | #. .X.@.+.o.:.z.S.lXVXLXLXLXLXLXGXLXLX",
"LXLXLXLXLXPXLXLXHXHXHXLXKXKXKXLXdXH.:.o.@.@.| Z K K C M M C M c Z Z Z Z Z ' X.*.y.6XNXJXJXDXSXPXLXLX",
"LXLXLXPXLXLXLXLXGXHXLXPXKXLXVXfX>.>.X.} ~ C b F c M c c c z M z D Y I f 8 q z Z X.;.h.NXLXIXGXHXLXLX",
"LXLXLXPXPXLXLXLXKXLXHXPXLXDXL.;...-.-./ v q c G M M C C C C G G H H B y 5 $ + + { X. .h.SXKXFXLXLXLX",
"LXLXLXLXLXLXLXLXLXLXGXLXLXfX;.|  .{ M z C ~ C z c x b v x v E E M z y w % = d h } %.| -.CXLXPXHXLXLX",
"LXLXLXLXLXLXLXLXLXLXDXLXLXfX:.$.0.,.{ x l z M z V V V M V V V N u w 7 & 7 i V ' #.=.} d.CXKXKXLXLXLX",
"LXLXLXLXLXLXLXLXPXHXHXKXKXZXc.q.1.6.&.} ~ C x v i 5 0 5 0 5 9 % = d n L ' | @.%.+.| -.4XVXGXKXHXLXLX",
"LXLXLXLXLXLXLXLXLXHXHXLXMXW.m.b.9.O. .#.=.=.=.;. ...{ { { }  . .&. .#.@.$.@.+.| |  .E ZXLXFXLXJXLXLX",
"LXLXLXLXLXLXLXLXLXLXLXDXMXE.B.b.9.X.| | @.| 6.6.5.5.5.5.5.5.5.5.@.@.+.@.@.@.#.| Z y 8 U mXLXPXHXLXLX",
"LXLXLXLXLXLXLXLXHXLXJXBXjXiXU.r.1.' Z } &.| #.| =.=.=.=.=.#.+.#.@.@.+.X.| { M u = $ X . ( NXDXLXLXLX",
"LXLXLXLXLXLXLXLXSXLXJXxXkXiXM.4.$.4 o 3 G ^  . .X.&.&.&.&.&.X.| ..' K B s d + @ @ d 9 8 # a.HXJXLXLX",
"LXLXLXLXLXLXLXLXSXLXDXcXiXiXN.3.r.e ; . @ . o 4 w w y y y y w w 7 =   . . @ O ; = & 8 0 9 - AXFXLXLX",
"LXLXLXLXLXLXLXLXLXSXMXjXiXE.n.3.o.# = % = - $   O O O O O O O O .     # # % = e e g 7 , 0 & a.JXLXLX",
"LXLXLXLXLXLXLXLXLXCXcXzXkXU.i.3.5.4 7 % % g 8 6 e 7 7 7 7 7 % * $ * e g e e w 5 3 g d 6 3 g - DXLXLX",
"LXLXLXLXLXLXLXLXLXMXiXcXjXN.7.4.X.6 I s 6 d 8 d 3 7 9 6 7 9 7 9 d 7 = 1 d 8 f f p = P + q 5 # %XLXLX",
"LXKXJXJXJXLXHXHXHXeXxXxXE.N.2.9.O.% ! E V t t q i r w 0 i i r t n s j j a u t z v 4 $ 8 8 & h R HXLX",
"LXLXLXLXLXLXLXHXLXuXkXyXY.n.4.9.;.% ! E G G B J D A A v x x x j E n n s a z c z a t 5 3 X + h I mXHX",
"HXLXHXHXHXLXLXKXJXuXyXR.n.u.4.7...5 W E G C G W W H H H H S S S Q E n a a z a z r p j 8 d h h & @XLX",
"LXLXHXGXGXLXLXLXDXW.E.M.n.u.1.1...t W W J C J W H J H H H H H W Q D a p a a t t u u 3 o 1 I I X a.SX",
"LXLXLXJXLXLXLXLX0XV.B.N.b.t.2.3.Q r F J J F H S F F F H J W H H D x p t a x t t a a i 8 8 k 7   ; NX",
"LXLXLXLXLXHXDXBXB.i.m.N.I.x.3.1.A r F B J v H G J J G H F F F F z t t t x x z u y a j 8 4 $ % e ( lX",
"LXLXKXLXHXBXzXuX0XN.B.n.I.x.2.5.A x S F ^ J Q H G H G F S S x B t z t t u a t t u a w - $ m [ d.S.zX",
"SXLXLXLXSXcXrXY.xXrXB.u.N.n.2.*.5 0 r r x p S x B B B x x x z t z z t t t t r r t D Q -.f.D.R.R.K.tX",
"GXJXLXAXyXY.AXMXzXcXU.i.m.i.q.o.` :.] [ C n I c q ~ l 9 U c l k b q C W E d.j.g.Z.R.eXU.eXD.K.U.J.qX",
"LXLXCXiXiXzXxXxXxXcXN.m.n.r.4.X.eXeX5XtXG.P.8XD.3Xh.6Xz.h.A.6XS.P.J.P.gXeXtXW.rXpXK.3XT.T.D.2Xf.S.9X",
"LXIXeXY.xXCXjXjXMXiXB.B.b.7.4.;.P.gXhXrXtX7XkXR.tX0XiXE.K.W.kX8XvXyXW.R.n.R.I.I.R.,X Xs.G.c.,X!.A.K.",
"LXlXV.iXBXzXMXjXMXrXn.U.b.4.<.j.*X~.C.B.aX/.2XQ.8XP.8XR.R.Y.0XG.K.tX6XhX3XnXOX_.c.nX.Xf.T.G.$X|.S.T.",
"JXB.B.VXMXiXBXMXMXY.m.U.n.4.8.D.OX X2XB.1X!.<X2X].OXXX*XtX,X$XR.E.;X^.<XoX X+X=XR.gX_.s.E.N.+X).S.T.",
"NXw.Q.HXzXjXxXVXkXB.N.c.r.<.>.K.>X.X<XP.<X~.<X#X^.:X>X!.<X X X_.iXoX^.A.!.[.wXI.8X8X X_.8XF.oX).F.K.",
"5Xw.0XBXkXCXxXxXE.m.M.x.0.8.z.qX*X}.#X=X[.{.;X!.L.Y.yX}.@X].oX_.@XOX$XG._.oXOX).#XP.-X>X_.^.>X=XF.G.",
"x.<.Y.zXgXCXBXrXU.n.M.u.9.8.f.iXaX{.+X>XbX).+X].iXI.8X].k.^.$X=X#X.X/.rXnX)._.,X6XT.Y.C..X=XI.J.G.K.",
"1.7.b.wXuXrXY.n.u.U.x.0.<.v.9XW.1X|.vXQ.$X}.,X/.S.Y.-X).>X:X^.lX;X).~.Q.8X~.OX7XOX2XI.*X.X=XU.4XR.S.",
"7.e.r.u.m.u.m.B.B.N.t.9.0.v.qXT.2X!.C.U.2X).=X:X_.;XOX).2X=X(.0X<X_./.pXpX(.).'.l.A.=X_./.A.G.tXG.g.",
"3.2.<.q.i.n.I.qXM.u.7.2.8.G.tXuXtX'.J.R.wX'.3XpX[.'.[.*XK.,X~.6XgX:X:XhXuX3X2XfXeXP.$X_.k.G.L.s.i h ",
"7.2.<.4.7.7.7.9.5.2.,.7.v.kXtXtX9X7XqXT.0X-XhXE.hXT.8X9X0X7X:XvXE.8X6X4XK.rXrXtXtXuXvX-Xz.-.k > , T ",
"4Xx.1.1.5.e.1.1.1.0.q..., I d.J.L.rXjXwXiXiXtXI.0XM.R.tXR.R.T.9XK.W.W.rXwXrXrXU.h.h.[ m % X < 8 6 p.",
"ZXI.4.2.1.e.e.7.3.8.N.n f < 3   n R p.f.H.J.5X4X5XR.rXlXkX0XE.qXhXJ.F.C.g.p.E B % 1 , X P I 9 2 < %X",
"SXlXV.0.2.2.2.0.b.5XVXp.v v v y , , o % P 4 e R W ! [ R ! R R R Y q f q d d + & % 4 f f d $ 4 q ; dX",
"KXKXJXZX9XU.K.sXjXLXLX%X4 J q m v v d w 1 9 * = 3 : # 2 2 $ > 0 - $ P % % 0 f d _ $ 4 9 3 = U + ( SX",
"LXLXLXPXLXLXLXLXGXJXJXAX) y t v x B V z y u a v u p a t r r y p u y t p c i 9 $ = & 7 7 7 8 6 , UXIX",
"LXLXLXLXLXLXLXLXHXFXLXAX3Xs 0 J / v x x S N x A t u a a a a x x a p p c x p i 8 h g 4 5 3 X d T IXLX",
"LXLXLXLXLXLXLXLXLXLXLXLXDXa.g x b W / / W S N B p u p t a x z a j p t c z x p t X i , 9 D   ; fXLXLX",
"LXLXLXLXLXLXLXLXJXLXIXKXLXNX) r / / W v v ^ K B A N z p z u u t s u t t z p p t 7 X 0 j . ; &XPXPXLX",
"LXLXLXLXLXLXLXLXLXHXGXKXJXLXaX) u V H W ^ W W G W G N a x x x x A a p t u z p p g i 8 @ . %XDXFXPXLX",
"LXLXLXLXLXLXLXLXLXGXGXKXLXLXHXdXR s D Q ^ v x H G A x p p a x A E D v x x a p s . h . ; aXHXIXJXLXLX",
"LXLXLXLXLXLXLXLXLXGXLXHXLXPXLXLXNX%XR e A S S v a a u u u u x N ! E A a p i 8 4 * = ( aXLXLXPXPXLXLX",
"LXLXLXLXLXLXLXLXGXLXPXLXHXLXFXFXLXJXfXp.t 0 t a u a a a a a a x E D n s i 9 $ X T %XVXLXPXFXJXLXLXPX",
"LXLXLXLXLXLXLXLXLXLXLXLXLXLXLXLXJXJXLXHXmX%X) e s e y t z t p n u i 9 X + U a.&XLXLXLXLXLXLXLXLXLXLX",
"LXLXLXLXLXLXLXLXLXLXLXLXLXLXLXLXLXGXLXLXLXAXCXsXg.d.! D p 9 3 8 h T ) g.fXNXJXJXPXLXLXLXLXLXLXLXLXLX"
};
