/* XPM */
static char *_3660ca28c2e46d8fbd0ba5f259454cdxW5vllE201lDkePs[] = {
/* columns rows colors chars-per-pixel */
"50 50 230 2 ",
"   c #020E02",
".  c #0B0F01",
"X  c #1C0C05",
"o  c #160C03",
"O  c #021302",
"+  c #0D1402",
"@  c #021C02",
"#  c #141205",
"$  c #1B1305",
"%  c #16160C",
"&  c #1C130A",
"*  c #181909",
"=  c #1A1807",
"-  c #200F04",
";  c #231305",
":  c #281706",
">  c #2A1905",
",  c #25150A",
"<  c #28170D",
"1  c #261A0C",
"2  c #2C1B0C",
"3  c #241907",
"4  c #321D0C",
"5  c #361D07",
"6  c #2D1E10",
"7  c #231610",
"8  c #311F11",
"9  c #022302",
"0  c #0A2500",
"q  c #022B02",
"w  c #092C00",
"e  c #042808",
"r  c #1F220D",
"t  c #023302",
"y  c #0A3401",
"u  c #023B01",
"i  c #093B03",
"p  c #09360B",
"a  c #153E02",
"s  c #103600",
"d  c #2E210D",
"f  c #24290F",
"g  c #33220D",
"h  c #3B240D",
"j  c #3E290C",
"k  c #36280E",
"l  c #232612",
"z  c #2C2410",
"x  c #262B12",
"c  c #342311",
"v  c #3A2612",
"b  c #3C2A14",
"n  c #342E15",
"m  c #2E3212",
"M  c #323514",
"N  c #343B14",
"B  c #3D3818",
"V  c #3A3517",
"C  c #43240E",
"Z  c #462A0A",
"A  c #5F2E0E",
"S  c #4F320C",
"D  c #52350F",
"F  c #5F310D",
"G  c #432C14",
"H  c #4C2B13",
"J  c #452F19",
"K  c #492F18",
"L  c #482510",
"P  c #522F14",
"I  c #463115",
"U  c #4A3216",
"Y  c #47311A",
"T  c #4C331A",
"R  c #453C17",
"E  c #543415",
"W  c #573914",
"Q  c #5C3A15",
"!  c #52361B",
"~  c #553A1C",
"^  c #5B3D1A",
"/  c #5D3519",
"(  c #623C19",
")  c #693D18",
"_  c #763D10",
"`  c #713F1A",
"'  c #66370B",
"]  c #563A20",
"[  c #5A3E21",
"{  c #573720",
"}  c #024302",
"|  c #0C4403",
" . c #024C02",
".. c #044508",
"X. c #0B440B",
"o. c #074C09",
"O. c #1B4505",
"+. c #015302",
"@. c #015B02",
"#. c #035409",
"$. c #0A5B0B",
"%. c #095908",
"&. c #1A5201",
"*. c #1C4D1E",
"=. c #0F5D11",
"-. c #3B581C",
";. c #006401",
":. c #006C01",
">. c #0B6A0C",
",. c #027302",
"<. c #017B01",
"1. c #0C760B",
"2. c #19681B",
"3. c #0C7010",
"4. c #177917",
"5. c #4B4A1C",
"6. c #47441A",
"7. c #5D421C",
"8. c #4C571B",
"9. c #64431C",
"0. c #69461C",
"q. c #73481C",
"w. c #66501F",
"e. c #7E551F",
"r. c #79621E",
"t. c #4D4C20",
"y. c #5D4222",
"u. c #564221",
"i. c #4C5620",
"p. c #525923",
"a. c #634523",
"s. c #694621",
"d. c #644922",
"f. c #6B4B24",
"g. c #6D4D29",
"h. c #67462A",
"j. c #744C23",
"k. c #7B4C24",
"l. c #734D2E",
"z. c #6C5124",
"x. c #695C25",
"c. c #735225",
"v. c #7B5125",
"b. c #75532A",
"n. c #7C5529",
"m. c #7C5A2B",
"M. c #755929",
"N. c #765830",
"B. c #79672E",
"V. c #7E712D",
"C. c #786232",
"Z. c #6A702C",
"A. c #81531F",
"S. c #805324",
"D. c #82562A",
"F. c #835B2C",
"G. c #8A5E2D",
"H. c #835927",
"J. c #955C27",
"K. c #835E30",
"L. c #8B5C32",
"P. c #866727",
"I. c #986329",
"U. c #876131",
"Y. c #8C6332",
"T. c #846B3A",
"R. c #906533",
"E. c #956A36",
"W. c #966B38",
"Q. c #9C6E3A",
"!. c #996A38",
"~. c #8D713F",
"^. c #9A7B34",
"/. c #9E733B",
"(. c #987737",
"). c #92742C",
"_. c #A26729",
"`. c #A96C2B",
"'. c #B3732D",
"]. c #B9762D",
"[. c #A46B3A",
"{. c #A1733C",
"}. c #A5793D",
"|. c #A97C39",
" X c #B7763D",
".X c #937542",
"XX c #A67943",
"oX c #AA7E41",
"OX c #AB7245",
"+X c #028202",
"@X c #038B02",
"#X c #0A8808",
"$X c #019B01",
"%X c #029304",
"&X c #0F8910",
"*X c #189815",
"=X c #1A8A1C",
"-X c #10AB0F",
";X c #11A812",
":X c #22A61F",
">X c #3C823C",
",X c #28A626",
"<X c #32AD35",
"1X c #35CF31",
"2X c #42CB3D",
"3X c #47C845",
"4X c #47D244",
"5X c #51DF4D",
"6X c #5BD759",
"7X c #52E751",
"8X c #5DD760",
"9X c #70CC6E",
"0X c #70E36E",
"qX c #77F476",
"wX c #70F16F",
"eX c #9F823B",
"rX c #A88539",
"tX c #B08738",
"yX c #B1973F",
"uX c #AA8043",
"iX c #A78A43",
"pX c #AC9341",
"aX c #A5904F",
"sX c #B78E46",
"dX c #CA884B",
"fX c #C78447",
"gX c #8BFF8A",
"hX c #84EA84",
"jX c #9AFFA1",
"kX c #B1FFB5",
/* pixels */
"O O O @ @ @ @ 9 @ @ 9 9 q q u t p t } } ..o.} +... . .} | i } u q q q 9 @ 9 @ @ @ @ O O O O O   O   ",
"O @ O @ @ @ @ 9 @ 9 9 e q t u p p }  .} o.=.@.1.@.1.@.+.} q p u t t q q e 9 e @ @ O @ O @ O O O O O ",
"@ O @ @ @ 9 9 9 q q q t u p ....$.%.@.@.4.4.:.#X#X&X<.,.2.*.*.u i u t q q e e 9 @ @ @ @ O O O O O O ",
"@ @ @ @ 9 9 9 e q q t u u  .o.o. .;.:.*X9XqX3X5XwX4X2X3X9X9X>X$.| } u u t e q e 9 9 @ @ @ @ O O O O ",
"@ @ @ @ 9 q e w t t u u .. .#.#.;.:.<.,XqXgX2X1XkXwXwX6X0XhX4.+.o. .} u u q q q 9 9 9 @ @ @ @ @ O O ",
"@ 9 9 9 9 e q p u u u }  .#.#.@.;.:.<.:XqXgX7X7XjX8XwX4X3X8X<.,.+.+. .} u u t q e e 9 9 e @ @ @ @ @ ",
"9 9 9 e e q e p u } }  . .#.@.$.3.:.<.#X,X<X*X-X,X;X-X$X#X=X;.:.@.+. .} } u t t e w e e 9 @ @ @ O @ ",
"9 9 9 q q q t p i } }  .o.+.%.%.>.:.+X+X#X&X@X-X%X$X$X%X#X3.2.$.@.@.+. ...u u t w e e q 9 @ 9 @ @ @ ",
"9 9 q q t t u u t X.}  .+.+.:.:.>.,.,.1.#X@X@X@X%X@X@X#X+X<.,.:.,.@.;. .u u u ..t t t q q 9 9 @ @ @ ",
"9 9 q q q t t u u } } o.&.O.&.&.;.:.:.<.<.+X+X+X+X<.<.<.,.,.:.;.+. .&.O.a O.u p t u t q q 9 9 9 @ @ ",
"9 9 q q t t u t } } } -.x.x.V.V.(.^.eXiXtXpXyXyXpXpXpXpXpXrXeX(.V.Z.B.x.p.-.s q t t t q q 9 9 9 @ @ ",
"9 9 q q t t t u o. .| 8.B.e.J.I.I.I._.`.'.'.].].].].'.`.`.I.I.I.P.e.n.q.x.p.a t t u t q q 9 9 @ @ @ ",
"9 q q q t t t u o.} y 8.m.e.R.E.^.(.}.rXtXtXtXtXrXtX^.^.).P.B.r.q._ _ ' d.i.a } t t t t q e e 9 @ @ ",
"9 q q q t t p u u u s 8.B.Y.uXaXsXfXsXdXdXdXdXdXfXfX]. X X[._.J.Y.G.A.) z.8.u u y t t q q 9 9 9 @ @ ",
"e q q q t t u u u X.a 5.q.A.!.~.}.XXoXoXoXoX|.|.|.|.{.!.W.R.G.H.c.k.q.F z.i.y  .u t t y q q 9 9 @ @ ",
"9 9 q q t t u u u } a t.v.L.OXXXXXXXoXoXuXuXoXrX{.{./.(.W.R.G.F.f.l.` A f.t.w i p t t w w e e 9 0 @ ",
"q q q t t t t u i } | 5.j.n..XOX{.{.{.{.{.{.{.{.Q.W.E.R.Y.G.H.H.q.q.0.D w.5.y u u t q q q q 9 9 @ @ ",
"q q q q t t t t i } i 5.j.g..X!.!.Q.Q.{././.Q.Q.W.R.R.Y.G.H.D.A.q.q.9.W y.5.y } q t t q q q 9 0 9 9 ",
"q q q q w t t t u } } 5.s.c..X!.W.W.!.!.W.!.!.!.R.Y.U.H.F.n.k.k.q.0.9.S 7.5.t } t t t q q 9 9 9 @ 9 ",
"q 9 q q w t q t y u i 6.0.z.T.R.R.Y.R.Y.R.Y.Y.Y.U.U.H.m.n.v.j.q.0.0.F S y.5.y u t t q q q 9 0 @ @ @ ",
"e 9 q q q q t p y u u 6.9.d.T.L.U.Y.Y.Y.U.U.K.K.P.F.n.b.v.c.f.0.9.( D S y.6.q u q q q q w 9 9 0 9 @ ",
"9 9 9 q q q q t y u u R 9.9.C.F.K.K.K.K.K.N.F.m.b.b.c.c.c.f.s.9.( Q D Z ~ R 0 u q t q q 9 0 9 0 @ 9 ",
"9 9 e 9 q q w q q u t R ( 7.N.D.m.N.m.m.m.b.b.b.c.z.f.f.f.s.9.( Q W S Z ~ R 0 t q q q q 9 9 @ @ @ 9 ",
"9 9 9 e e q w q w u u I ^ 7.C.n.b.M.b.b.M.b.b.j.z.f.0.f.9.9.^ Q W W S C ] 6.0 u t q q q q 0 0 0 9 @ ",
"9 9 9 9 9 9 q q t t w N W ( l.g.g.b.b.g.g.g.f.f.f.d.9.9.7.^ ^ W E U U j U B 0 q q q q q e e e @ @ @ ",
"@ 9 9 9 q q q q t t q N ! ( b.f.g.g.g.f.f.f.f.s.d.0.9.7.7.^ W W W U I j I B 0 t 9 q 9 9 e @ e @ @ @ ",
"9 @ 9 9 9 9 9 q q q q N U / l.h.f.f.f.a.s.a.a.a.7.7.7.^ W ! ! ! E Z Z j I V 0 q q 9 9 9 @ 9 e e @ @ ",
"@ 9 9 9 9 9 q 9 q q 0 M U E h.y.h.a.a.a.a.a.9.a.7.^ ^ ^ ! E E U U G j h G V 0 q 9 9 e @ e @ @ O @ @ ",
"@ @ @ 9 9 9 9 9 q q q m K E h.u.y.y.h.y.y.[ [ [ ~ ^ ~ E ! T U T P C Z g G V @ q 9 9 9 9 e @ @ e @ @ ",
"@ @ @ 9 9 9 9 9 q q 0 M K E h.u.y.y.[ ] [ ] [ ] ~ ! T ! U U K K L h h 5 C n @ q 9 9 9 @ @ @ e O @ @ ",
"@ @ @ @ 9 9 9 9 9 9 @ m G H y.] ] ] ] ] ] ~ W ! T T T K K G G G L h k 5 b M @ 9 @ 9 @ 9 e O @ O @ @ ",
"@ @ @ @ @ @ @ 9 q 9 @ m G L [ T ] ] ] ] T ] T ! I I K G G G G L C h h 5 b c @ 9 9 9 @ @ @ O e @ O @ ",
"@ @ @ @ @ e @ e @ 9 @ f k L ~ U T T ] T T T U U J J K G G C G C v g g > d x @ @ 9 9 9 @ @ @ @ @ @ O ",
"@ @ @ @ @ @ @ @ 9 9 9 x k C { U ] T Y T T Y Y I K G G C G C v h k d g > n x + @ @ 9 9 @ @ @ @ @ O @ ",
"@ @ @ @ e @ @ @ @ 9 @ x c C ! U T T T T T Y Y K G G b b h h 5 h g g g > d x O @ 9 @ @ @ @ @ O @ @ O ",
"O @ @ @ O @ @ @ @ @ @ x g C T G T J J J Y b J J v C b h v h v h g > g ; d x O @ @ @ @ @ O O @ O O O ",
"@ O @ O @ @ O @ @ @ @ f g 5 T G J J V b I b b v v b v v 8 h 4 g d > 5 ; z l O O @ @ e O O @ O O O O ",
"O O O @ O O @ O @ @ O r c 5 K v b b J b b b v k v v b v v 4 4 4 d > > : 6 l O @ @ O O @ @ O O O O O ",
"O O @ O O O @ @ O O O r 2 5 J v b n b b c b v v c v 8 8 4 8 4 4 > : 2 ; 6 l O @ @ O @ O O O O % O O ",
"O O O O @ O O O O @ O l 6 5 J c b b b v b k c v 8 8 8 4 4 > > 4 > : > ; 6 l O O O @ O O O O O O O O ",
"O O O O O % O O O @ + = d d g v c c c c c c c c g d d d > d > 2 3 > ; - 1 *   O O O   O O   O O O O ",
"O O O O O O @ O O O + = d d v k c c n c z c c g 2 d 2 > 2 > 2 : 3 : ; ; 1 * O O % O % O O % % O O O ",
"O O O O O O O O O O + = 1 2 z c 8 8 8 8 2 6 2 c 2 2 2 2 > > : : 3 1 ; - 1 * O O O O O O O O O O O O ",
"O O O O O O O O O O + = , 6 8 c 8 6 8 8 c 2 6 2 2 2 2 2 > , , , 3 , - ; 7 %   O O   O O O O     O O ",
"O   O O O O O O   O + & , 6 2 8 8 6 8 < 6 2 6 6 1 > < : , , ; ; $ , - - 7 %   O O O O O O O %       ",
"O     O   O O O O   + # 3 1 6 8 8 6 6 6 6 6 4 < 1 1 < , , , , ; $ ; - X 7 %   O O   %   O     O     ",
"O O O   O O O O   O . # ; < < 6 6 6 < < < < < < < , ; , , - ; - X - X X 7 %     O     O   O O       ",
"O   O O O O O O     . # , < < 6 6 < < < < < , < , , , ; - , - - X - - - 7 %   O   O O       O O     ",
"                    . o & & , 1 < 1 < : , : , , & & & & & & X # X & X o & #   O                     ",
"                  O . % X , < 7 < 1 : < , , , , 3 & & & & & & o X & X # & #   O                     "
};
