/* XPM */
static char *_3491f89517d464cb78c1493b564c5c3vLJWMcr7PRTLP9to[] = {
/* columns rows colors chars-per-pixel */
"50 50 201 2 ",
"   c None",
".  c #161615",
"X  c #1B1714",
"o  c #151915",
"O  c #14161B",
"+  c #151B1C",
"@  c #1C1D1C",
"#  c #1A191A",
"$  c #1F160C",
"%  c #231D16",
"&  c #231C1C",
"*  c #2A1E1B",
"=  c #2C1C16",
"-  c #351E1D",
";  c #1E221D",
":  c #152515",
">  c #25220E",
",  c #22221D",
"<  c #292318",
"1  c #35221B",
"2  c #3D2A1D",
"3  c #26311C",
"4  c #392F0E",
"5  c #0D1A22",
"6  c #151C22",
"7  c #1C1E22",
"8  c #251E22",
"9  c #321F21",
"0  c #162124",
"q  c #1D2122",
"w  c #15232B",
"e  c #1B242B",
"r  c #1C2B33",
"t  c #152935",
"y  c #132C3A",
"u  c #242423",
"i  c #282724",
"p  c #262826",
"a  c #292926",
"s  c #24262A",
"d  c #25292A",
"f  c #292A2A",
"g  c #2A2629",
"h  c #3E2223",
"j  c #312727",
"k  c #2D322D",
"l  c #2E3B24",
"z  c #232B33",
"x  c #262C34",
"c  c #2D3235",
"v  c #203036",
"b  c #343434",
"n  c #35373A",
"m  c #363A3C",
"M  c #3B3B3A",
"N  c #383736",
"B  c #31352E",
"V  c #452919",
"C  c #4C301D",
"Z  c #401F28",
"A  c #452E23",
"S  c #54292D",
"D  c #4A3223",
"F  c #563326",
"G  c #5E3134",
"H  c #663728",
"J  c #6F3330",
"K  c #7E6309",
"L  c #4C4D3B",
"P  c #4C513E",
"I  c #6D422B",
"U  c #75442A",
"Y  c #7D4529",
"T  c #51783E",
"R  c #243947",
"E  c #3C3F41",
"W  c #3A3E49",
"Q  c #3B4144",
"!  c #3E474B",
"~  c #324D6D",
"^  c #395874",
"/  c #2D4D6F",
"(  c #3F667E",
")  c #434444",
"_  c #44494A",
"`  c #4A4C4D",
"'  c #44474B",
"]  c #4B4E52",
"[  c #4E5050",
"{  c #535354",
"}  c #5B5C5C",
"|  c #565758",
" . c #515343",
".. c #605F5F",
"X. c #5E615F",
"o. c #63645B",
"O. c #5A5D61",
"+. c #5E6163",
"@. c #646565",
"#. c #646669",
"$. c #66696B",
"%. c #6A6B6C",
"&. c #6A676A",
"*. c #6B6E71",
"=. c #727375",
"-. c #757A7C",
";. c #7A7C7D",
":. c #727479",
">. c #6E7475",
",. c #8E3B3A",
"<. c #873737",
"1. c #963E3D",
"2. c #842F31",
"3. c #A43A36",
"4. c #876D09",
"5. c #87492E",
"6. c #96522D",
"7. c #9D5432",
"8. c #985534",
"9. c #915131",
"0. c #A15532",
"q. c #B9423E",
"w. c #D3443F",
"e. c #943640",
"r. c #A93B40",
"t. c #CB3D41",
"y. c #BD4148",
"u. c #817E7F",
"i. c #CA4444",
"p. c #DA4647",
"a. c #D64751",
"s. c #E04047",
"d. c #578D47",
"f. c #65944E",
"g. c #71AF57",
"h. c #A28A0D",
"j. c #B7980A",
"k. c #AC8C11",
"l. c #D4A60E",
"z. c #FDC90E",
"x. c #FFC710",
"c. c #425C8B",
"v. c #445E86",
"b. c #456685",
"n. c #456391",
"m. c #7C7D84",
"M. c #7D8184",
"N. c #858585",
"B. c #8B8C8C",
"V. c #848689",
"C. c #908E8F",
"Z. c #8A8D92",
"A. c #8F9596",
"S. c #939496",
"D. c #969A9B",
"F. c #9B9A9C",
"G. c #959599",
"H. c #9D9DA1",
"J. c #A09EA2",
"K. c #9DA1A2",
"L. c #A3A3A5",
"P. c #AAACAD",
"I. c #A6A7A9",
"U. c #B0B0AF",
"Y. c #ADADB1",
"T. c #ACB1B1",
"R. c #B2B2B4",
"E. c #B5B6BB",
"W. c #BABBBC",
"Q. c #B8B8BA",
"!. c #C0BBBD",
"~. c #BCBEC2",
"^. c #BDC2C4",
"/. c #C3C4C6",
"(. c #C7C8CA",
"). c #D0CFCE",
"_. c #CBCED1",
"`. c #CED4D6",
"'. c #D3D4D5",
"]. c #D4D6D9",
"[. c #D5DBDD",
"{. c #DADBDC",
"}. c #DCDFE1",
"|. c #DEE2E5",
" X c #E1E4E6",
".X c #E3E6EA",
"XX c #E5EAEC",
"oX c #E8ECEF",
"OX c #E7EDF1",
"+X c #E6ECF1",
"@X c #E8EBF0",
"#X c #E9ECF1",
"$X c #E8EDF1",
"%X c #E8EDF2",
"&X c #EAEDF2",
"*X c #EAECF3",
"=X c #E9EEF2",
"-X c #EAEDF1",
";X c #ECF1F4",
":X c #F4F5F5",
">X c #FBFBFC",
/* pixels */
"                  5 q s u i u q 5                                 y 0 0 q 0 6 y                     ",
"                + q s f d i a s q +                             w q d p p u s ;                     ",
"              + q p d d f p a i p q v         w w e e w 0     z @ u g g a p d s q                   ",
"              ; s p d f p a f p p u q e s n ] #.V.L.I.A.:.| M q @ 8 p p i u f d q                   ",
"            q , p p s s f f g i u ; , | N.S.Y.].=X;X;X;X=X|.`.L.@.u @ , u u s d q                   ",
"            ; u p p s g d d f p , & } F.F.E. X*X*X+X%X%X@X+X*X*XoXW.} , , s s s @                   ",
"            q q d p s g f d f , u @.F.F.~..X@X@X@X+X+X%X%X+X=X=XOX;X|.B.d u d d @                   ",
"            r ; p f p s d a u & @.F.F.W..X@X@X@X@X=X%X+X+X=X=X=X;XOX;X=XF.s q s u                   ",
"              @ p p p d f u ; ..G.F.Y..X*XoXoX*X@X*X@X@X*X@X=X@X=XOXOX=X=XA.q q                     ",
"                & s p g a @ { S.F.L.{.*X@X*X@X@X=X*X*X@X@X*X*X=XOX;X=X=X;X.X*.+                     ",
"                  @ q 7 @ M B.F.F./.*X*X@X*X=X*X@X*X=X=X*X*X*X*XOXOX@XOXOXOX`.Q                     ",
"                    8 N ` N.F.F.I.|.*X*X@XoX*X*X=X*X*X=X*X*X*X*XOXOXOXOXoXoX;XD.O                   ",
"                    n B.F.F.F.F./.oX;XoX=X=X@X*XoX*X*X*X*X*X*X*X=X%XOXOX+X+X+X}.Q                   ",
"                  + #.F.F.F.F.L.}.oXoX=X=X=X*X*X*X*X*X@XoX=X*X*X=X@X=XOX+X+X+X;XM.O                 ",
"                  f B.H.F.F.F.W.oXoX=X=X=X;X;X;X;XoX=XoX@X=XoX=X*X=X=X%XOX%X=X=X~.d                 ",
"                  _ F.F.F.F.F._.=XoX=X=X'.D.m.F.].;X=XoX@XoXoX=X=X=X=X=X%X}.[.=X|._                 ",
"                  #.H.F.G.H.L.}.=X=X=XL.N M | N M R.*X=XoX@X=X@X*X*X:X}.-.n E $.`.>.6               ",
"                7 ;.H.F.F.F.Y.XXoX;X^.c u.}.*X'.%.n _.*X@X@X@X=X*X*XoX*.7 B.P.D O.A.e               ",
"                s N.H.F.F.F.E.@X@XoX#.[ XX;X:XW.L.) V.*X@X@X@X*X*X;X~.@ B.>X}.I.n V.z               ",
"                b C.F.F.F.F.~.*X*X_.g B.:X{.Q.=.) &.O.@X*X@XoX@X@X:XV.u ).}.J.&.{ +.m               ",
"                b C.H.F.H.H.~.*X;XP.X N.:X{.F.N x } _  X*X*XoX=XoX:X%.u '.F.M E ` ] '               ",
"                b V.J.F.F.F.~.*X;XD.o E {.:X/.| =.m ` .X*XoX:X;X*X:X;.. I.:X;.@.b ] ]               ",
"                  u.J.F.F.H.E.@X;XK.u # o./.{.Q.} . =.;XoX=X_.P.R.'.F.# L P.R.} . &.`               ",
"                  &.F.F.F.F.I..X;X/.b u @ p N f # u T.;XoXD.f 8 , B N.N @ X u # & C.M               ",
"                  _ G.G.F.F.J.].*X.X#.s u u , q & }  XoX X) a N &.M [ B.a @ , , o.T.s               ",
"                    :.F.F.F.F.!.oXoX_.{ u ; s 3 { `.;X;XXX| ; N N q #.oXF.{ ) ;.{.B.                ",
"                    W B.F.F.F.J.{.;X;X'.V.+.@.A.[.=X=XoX=X^.) ; @ [ _.;X;X X|.;X[.]                 ",
"                      [ C.F.F.F.R..X=X=X;XoXOX;X=X=X=X;XoX;X[.` [ |.;X+XoX=X=X.XB.                  ",
"                        ! N.H.F.D.^.*X*XOX;XOXOXOX;X;X|.|.[.D.p d I.}.+XOXOX.XD.                    ",
"                          c &.Z.D.H.~.XXOXOX;XOX;XOX;XK._ Q m B.;.c #.|.OX_.Z.                      ",
"                              M } u.G.E.|.;X;X;XOXOX;X|.T.E.[.;XOX_.^./.D.                          ",
"                                e d N ` *.K.^.`.[.[.[.[.[.`.^.T.A.m.;.                              ",
"                                  d @ # X @ f B N M M l k a , @ . ;                                 ",
"                                  7 u u p @ , : L o.P < ,  .P @ + e                                 ",
"                                # @ < g u @ u ; P  .a ; q , a @ 7 @                                 ",
"                                @ 8 u u @ # q ; o o q q q q q @ @ + d                               ",
"                              # 7 8 s u u | #.@.o.{ p k k s } m.! O + q                             ",
"                              * h 9 % @ N R./.(.W.} > , , > } !.O.8 ,.,.j                           ",
"                            - J i.t.<.* X s s z q $ h.j.j.h.X d e h p.p.,.1                         ",
"                            S y.t.p.a.S v c.c.v.^ > l.z.z.l.> ~ / 9 w.w.i.<.                        ",
"                            G 7.t.s.s.J z c.n.n.^ X k.z.z.j.% ~ ~ - 3.p.w.<.                        ",
"                            h e.3.t.p.H O 7 e s & = 4 4.4.4 @ s e 8 e.r.2.                          ",
"                            6 9 G ,.,.1 A F 8 V 5.Y J V V H 5.A @ & S h                             ",
"                            + 3 , % < V 6.7.J 1 9.7.0.0.0.0.F < D 8 6                               ",
"                            + T f.3 V U 7.0.5.= U 6.6.6.9.H 1 U 9.1                                 ",
"                            : d.g.l D U 7.0.6.- & j - * * % F 7.6.V                                 ",
"                            : f.f.3 A H 5.5.5.- @ q 7 # & j H Y U 2                                 ",
"                            o l 3 # X X % = & O r R R 6 @ # @ * * *                                 ",
"                                v @ z d b E R z R b.^ t p k N E M f #                               ",
"                                  q e e r r r 7 R b.^ y + 7 q q q q @                               "
};
