/* XPM */
static char *ff1677e7e0b44866ebd6197f8f34e271JMkLr8HudxtwiYBz[] = {
/* columns rows colors chars-per-pixel */
"50 50 194 2 ",
"   c #455E03",
".  c #485D00",
"X  c #496302",
"o  c #45630B",
"O  c #4D650C",
"+  c #4F690C",
"@  c #51660B",
"#  c #536B0D",
"$  c #56700F",
"%  c #4D6612",
"&  c #4D6912",
"*  c #4B6619",
"=  c #4E691C",
"-  c #536D14",
";  c #586F13",
":  c #556E1A",
">  c #577013",
",  c #5A7215",
"<  c #5F7916",
"1  c #56711B",
"2  c #5B741B",
"3  c #5D791C",
"4  c #627415",
"5  c #637917",
"6  c #63771A",
"7  c #687718",
"8  c #637B1C",
"9  c #697F1D",
"0  c #717F1E",
"q  c #577222",
"w  c #5B7521",
"e  c #5E7924",
"r  c #5C762C",
"t  c #5E792B",
"y  c #5F7B31",
"u  c #607725",
"i  c #647D23",
"p  c #697E22",
"a  c #647D2B",
"s  c #687F2E",
"d  c #637D32",
"f  c #647F38",
"g  c #65811D",
"h  c #6B811E",
"j  c #668024",
"k  c #6B8325",
"l  c #6E8825",
"z  c #66822B",
"x  c #6C852B",
"c  c #6E892C",
"v  c #718525",
"b  c #788624",
"n  c #728926",
"m  c #71872E",
"M  c #738B2C",
"N  c #798D2C",
"B  c #76902F",
"V  c #7A912E",
"C  c #668233",
"Z  c #6C8432",
"A  c #6E8A32",
"S  c #69853C",
"D  c #708634",
"F  c #738C33",
"G  c #798E32",
"H  c #738D3A",
"J  c #759134",
"K  c #7C9333",
"L  c #7F9833",
"P  c #76913C",
"I  c #7B943C",
"U  c #7E993B",
"Y  c #6F8B41",
"T  c #718C43",
"R  c #769142",
"E  c #7C9542",
"W  c #7E9944",
"Q  c #79944D",
"!  c #7D984B",
"~  c #838F2B",
"^  c #84902C",
"/  c #808F30",
"(  c #829535",
")  c #889430",
"_  c #829A36",
"`  c #899935",
"'  c #82963A",
"]  c #839B3C",
"[  c #899C3D",
"{  c #919F3D",
"}  c #87A03C",
"|  c #8AA23E",
" . c #809745",
".. c #859D43",
"X. c #8A9E43",
"o. c #829748",
"O. c #859E4B",
"+. c #829D50",
"@. c #86A144",
"#. c #8BA344",
"$. c #8FA943",
"%. c #87A14B",
"&. c #8BA44B",
"*. c #8EA84C",
"=. c #93A444",
"-. c #98A743",
";. c #92AB46",
":. c #99A945",
">. c #92A64A",
",. c #91A84E",
"<. c #97AB4C",
"1. c #93AB4C",
"2. c #98A94D",
"3. c #99AD4D",
"4. c #96B04D",
"5. c #9BB24F",
"6. c #85A052",
"7. c #8EA754",
"8. c #8CA652",
"9. c #8EA851",
"0. c #8DA954",
"q. c #8FAA59",
"w. c #91A752",
"e. c #94AC53",
"r. c #9BAE54",
"t. c #91AD58",
"y. c #94AD5A",
"u. c #92AD5A",
"i. c #97B156",
"p. c #96B055",
"a. c #96B155",
"s. c #98B257",
"d. c #9FB054",
"f. c #9BB354",
"g. c #9FB854",
"h. c #95B15C",
"j. c #96B25D",
"k. c #97B35B",
"l. c #9BB55A",
"z. c #9AB459",
"x. c #98B15D",
"c. c #9BB45B",
"v. c #9DB85B",
"b. c #9FBA5D",
"n. c #9EB85C",
"m. c #A3B756",
"M. c #A2B956",
"N. c #A3B458",
"B. c #A3B65B",
"V. c #A0BB5E",
"C. c #A3BB5B",
"Z. c #ABBC5C",
"A. c #99B560",
"S. c #9BB762",
"D. c #9AB661",
"F. c #9AB561",
"G. c #9EBA63",
"H. c #A5BD67",
"J. c #A6BF66",
"K. c #A4BC62",
"L. c #A9BD63",
"P. c #A7BF69",
"I. c #A7BF69",
"U. c #ABC15D",
"Y. c #A6C062",
"T. c #ACC365",
"R. c #AEC865",
"E. c #A6C269",
"W. c #A9C16B",
"Q. c #A8C26B",
"!. c #AFC769",
"~. c #A9C36C",
"^. c #ACC46A",
"/. c #AFC96D",
"(. c #AFC96B",
"). c #B0C566",
"_. c #B0C563",
"`. c #B2C863",
"'. c #B3C964",
"]. c #B4CA65",
"[. c #B2CA65",
"{. c #B2C768",
"}. c #B0C569",
"|. c #B3C86B",
" X c #B0CA6E",
".X c #B6CB6E",
"XX c #B2CB6B",
"oX c #AEC871",
"OX c #B7CC71",
"+X c #B2CB77",
"@X c #B4CB72",
"#X c #B8CD72",
"$X c #B8CF77",
"%X c #BAD175",
/* pixels */
"s s R : F.% W F J z L 3 } J G #Xk 1 +Xz I.D 8 [ | _ | } } V.U + ] `.M ..z z %.P ..F 2.2.K , z *.> /.",
"C s E : F.- W J P z U j @.K K #Xx 1 @Xa I.F p ] | } | L L V.U + _ `.M #.c z *.P U _ m.<.] j A ..2 oX",
"Z Z o.1 G.& W A U c U j #.U K .XA 2 Q.i I.D p _ ;.| ;.L U b.W o L `.B @.A z 8.W [ ' d.>.[ i c %.> /.",
"s Z 8.: D.: E A U c U g #.U ( |.c 2 Q.i I.x k ] 4.| ;._ U v.U & ( '.B #.F j 8.U %.N #.>.X.2 z e.2 !.",
"a C 0.1 j.1 E A U A U j $.] ' |.z e Q.j H.i k ] 4.} ;.L U v.P & L [.B @.J 1 8.I >.K [ =.X.8 z z.2 !.",
"a Z q.1 j.1 R J U c U z &.#.[ |.z j E.z H.i z ] ;.} ;.L U g.R $ ( ].B @.J & &.G ..' X.[ X.p j *., !.",
"z Z j.: t.q P A W F ] j >.#.` T.j g G.z I.i x L ;.} $.L U a.W 1 V ].J @.J o &.H &.' X.' O.p 2 %.3 '.",
"s Z k.& 0.1 H A W A U 8 &.[ ( T.l j G.z E.p x K ;.L | L U a.W 1 L ].B W H o *.P B.' ' [ >., 2 a.8 XX",
"p I w.w 6.g S P U A @.z $...( U.j 3 H.i I.l p K 4.L 4.B B v.W & N ].K *.A & %.U r.X.' [ ' 3 3 *.2 ).",
"i Z 8.: 6.q C z R J W g $.} ( T.A 2 K.i I.z k ] 4.} ;.L B k.W 3 n `.M *.A + %.P s.=.' ' [ 8 e a.; T.",
"F Z O.% t.1 P E P J @.3 #.} ) U.B 3 K.3 T.m x _ 5._ | L J k.R w n `.M @.F & %.J c.>.' ( J 2 e a.- ^.",
"J x %.% A.1 P E H P %.i $.} V U.c 3 K.j  XF k K ;._ | } c k.R 1 B U.K @.J & 8.J c.>.G ( ' 2 i e., T.",
"D p %.: G.& t q A W &.i $.} N U.l 3 V.z /.F k B $._ $._ A Y.W q n _.B ..J & &.F B.r.' [ ..8 z w.u !.",
"x a o.- j.* e q H ! &.3 1.| N U.B < b.g T.m l L #._ $.} J Q.6.z l U.K ] J o %.D c.N.' [ X.8 x *.O e.",
"F x  .- 0.1 C C W ! @.> 1.#.N M.z g V.j Q.c k L ;.L } @.F F.R x k Z.L U F o &.Z c.N./ [ ..2 x &.1 E.",
"z x E - %.1 e t %.%.P + *.$.N g.k 3 R.z /.c k L 5.B L #.c 0.C z k U.] E J   &.Z B.B./ ....2 c *.1 ^.",
"s d E : 7.w C i U E G i s.#.] B.c 1 W > $XD p G =.M l J c F.t a j V.L ] x   >.m r.L.( ..&.p G &.: ^.",
"s d E : 7.w x 2 Z E U 8 &.U L Y.l 3 a.3 @Xp p ' <.G M U A F.C t A R.] ] m . >.m r.B...X.@.8 x &.: ^.",
"Z d ! : 7.w s ; D X...2 ..m M Y.c 2 *.2 $XD p G f.K M ] A A.S t j U._ #.L @ 2.m w.d.[ X.[ 2 c 1.: |.",
"Z u E w q.u D : J %.] , &.K J C.c > &.- @XD 6 F 4.K l U z u.S q z U.U #.K # N.( r.r...>...3 x e.; /.",
"a : H q 7.x H w F &.U ; e.@.] !.j & e.> ~.x 6 ' 4.B l U z q.S q U (._ L n @ B.' L.r.X.>.X.p x ,.; ).",
"C q H q 8.a I w x w..., 1.] K !.k $ e.- oXG p ' a.B j ] a q.Y q j T.] U b ; B.N B.X.' >.X.x c <.; ^.",
"R w P w 8.s I 2 z e.@.2 1.U M T.J > *.+ @X..p K 5.B j @.a 6.T 1 > C.[ ( N , B.k d./ / X. .k x f.; ).",
"R w H w 7.D O.p k &.] > f.&.L R.J , f.+ oXI p ' f.K j ..e 6.Y = j  X} N k 4 Z.n B.'  .>...k x e.; ).",
"s a o.2 F.2 I x k @.U 8 &.| L T.c 3 e.X I.G p G <.B j ..2 7.y * c (.} _ h 5 L.v _.3.' [ _ 8 m 1.; |.",
"D a o.u y.1 D a k @.G 2 *.#.L R.l g f.O }.I p G <.K x @.1 6.f q M XX_ U l 5 m.9 2.&.L X.@.8 j @.; T.",
"D u  .Z u.w x x k ..B , 1.#.B T.l 8 B.# @X .p G ;.U m #.: Q Y r c XX] L l 5 M.5 >.>.( #.$.p 8 $.- L.",
"s u I H w.p z M j @.M > <.| B R.l g B.- @X' 8 G 1.L x @.q Q Y r c '.K L n h Z.4 3.m.K ] &.p j f.# K.",
"Z w E I &.z i x j @.M > 4.} M [.l g b.# @X..p G 1.K j @.a O.T r c R.L L n h M.4 m.d.M V @.8 k f.1 T.",
"H 2 O.I %.x x c j @.x # <.#.n XXl g V.# |...p L 1.K i O.Z +.Q r J [.L L n 9 m.4 Z.5.N K } 8 h *., E.",
"H : O.H %.x D c k @.8 X a.#.l R.l g b.# @X..p ' #.K p ..d R Q y B R.L ( n 9 M.5 Z.3.K [ @.h l *.- G.",
"H : %.z E i k 2 c } ,   4.#.l T.k 8 v.+ @X..p K $.K z ..u C Y r l U.V K n h m.5 Z.2.( [ _ g c 4.- G.",
"Z w o.G *.c k L k #.< $ 5.#.c (.F a E.i  X&.p ' X.X... .s F.Z u N U.` L B 8 g.6 Z.{ ) -.` 5 B 4.1 }.",
"D i %.I a.M k J k 4.l < a.$.c V.x : e.% I.X.6 G X.K G ' Z c.s u N Z._ M m i B.4 Z.=.) :.` 5 M s.; ).",
"D 2 O.J a.M M K < 5.J 3 f.1.J V.Z - %.o T.#.8 N X.M G o.z e.s u b U._ M v p B.6 Z.{ ^ :.` < l s., ).",
"Z : O.I 9.F M B $ ;.B < <.*.J T.H 2 w.- |.&.8 N [ K ] %.u %.s s n U.] F z p I.4 Z.{ ^ { ` < c a.; ).",
"P w O. .1.m M l 8 4.M < 1._ c ^.F 1 e.> @X&.4 N X.' ....: 8.Z a M Z.] B k p ).4 Z.-.` -._ 5 K z., ).",
"H - .. .&.F M m l 1.l 8 a.U c  Xx - 9.> @X$.6 N &.K ]  .: e.D 2 n M.] K 8 3 I.6 Z.=.) -._ 8 J s.; L.",
"D %  .J &.m G m x *.k 3 a.@.k !.c - 9.> %X2.9 V #.G [ X.: &.Z w M 5.] J 1 - L.8 Z.` b { _ $ j z.- T.",
" .: X. .%.m F z m a.c 8 f.} i f.J > e.> %X<.h V [ G &.e.:  .s a N 3.( F - O K.9 L./ h :.] o j v.; ).",
"I : O.O...D x m M 9.K 2 f.#.M Y.c 3 *.>  Xg.g N X.' ..>.-  .s a x M.U c - % N.; B.{ 7 =.' p z c.; ).",
"I : ' W w.U D x A 1.F , a.@.B Y.c 3 a., XXg.v K [ G X.w.: o.D a k f.] F : - K.; L.=.7 =.( 6 z e.; ).",
"F a %.X.w.H s x c ,.c , a.@.M U.c g z.$ C.<.h ( [ K X.w.:  .f u m g...J - : I.- L.=.4 =.U e z z., T.",
"G Z w.O.w.F i u A w.x 1 a.[ B b.A l z.+ g.1.h B =.K o.>.% I s s ] C...F % : I.@ L.=.4 =.] j A z.; L.",
"D p I I c.I a : A e.k , f.} J b.l j v.$ U.M.n V #.K ..>.:  .s s X.L...F & 1 ^.@ L.>.7 >.] i z 8., ).",
"D k R I 8.Z i % D u.p 1 b.[ L g.j g V.< ].M.v n [ N ..e.w o.D s U B...P w w I.% I.=.7 >.U 2 j 8., I.",
"x x %.O.E w u % Z y.3 , b.] K s.z g U.< ].g.h n [ N ..e.w o.H s U n.I P a w K.- L.=.4 #.J 3 z h., L.",
"G s ....o.x Z - D e.e > f.U L a.l j g.< R.U.n ` #.G ' w.:  .D s ..L.J F a q x.; L.X., #.J 1 z k.i  X",
"F u #. .&.z P i A 7.i 1 b.] K c.x 8 B., '.g.v ` >.6 #.w.: E H s X.f...F z q G.1 ^...7 >.' ; z k.i I.",
"J p &...&.k P z A e.i 1 n.@.J c.x k K.8 |.M.M [ 2.9 >.e.: o.T D [ 5. .G z 1 H.: /.X.p 2...; x c.i I."
};
